<svg id="Icon_Set" enable-background="new 0 0 256 256" height="512" viewBox="0 0 256 256" width="512" xmlns="http://www.w3.org/2000/svg"><path d="m5.048 84.149c1.627 19.559 16.669 35.682 36.074 38.624 6.175.936 12.133.515 17.657-.966l5.417 3.128 14.501 8.372c2 1.155 4.5-.289 4.5-2.598v-16.744-9.622c4.898-7.278 7.62-16.142 7.228-25.662-.89-21.634-18.226-39.449-39.831-40.881-26.175-1.733-47.73 20.088-45.546 46.349z" fill="#ffe2e2"/><path d="m83.2 104.34v26.37c0 2.31-2.5 3.75-4.5 2.6l-10.5-6.06v-22.91c4.9-7.27 7.62-16.14 7.22-25.66-.83-20.08-15.82-36.87-35.25-40.32 3.35-.59 6.84-.8 10.42-.56 21.61 1.43 38.94 19.25 39.83 40.88.4 9.52-2.32 18.39-7.22 25.66z" fill="#ffcfcf"/><path d="m55.18 122.61c-4.48.8-9.2.9-14.06.16-19.4-2.94-34.45-19.06-36.07-38.62-2.19-26.26 19.37-48.08 45.54-46.35 1.55.1 3.08.29 4.58.56-21.2 3.76-37.01 23.12-35.12 45.79 1.59 19.24 16.19 35.16 35.13 38.46z" fill="#ffefee"/><path d="m29.334 57.688h35.581v46.671h-35.581z" fill="#ff4a73" transform="matrix(.707 -.707 .707 .707 -43.49 57.053)"/><path d="m46.897 50.416h15v46.67h-15z" fill="#ea2a6a" transform="matrix(.707 -.707 .707 .707 -36.217 60.065)"/><path d="m32.345 64.968h15v46.67h-15z" fill="#f973a3" transform="matrix(.707 -.707 .707 .707 -50.769 54.038)"/><path d="m164.915 224.812v21.239c0 2.761-2.239 5-5 5h-64.14c-2.761 0-5-2.239-5-5v-21.239c0-15.179 9.241-28.227 21.781-33.762 1.446-.658 2.936-1.23 4.468-1.695 3.421-1.047 7.048-1.608 10.815-1.608s7.393.561 10.815 1.608c1.544.475 3.033 1.047 4.479 1.695 13.226 6.031 21.782 19.119 21.782 33.762z" fill="#3193f3"/><path d="m208.605 50.428c-18.387 1.489-33.021 15.288-35.574 33.558-.768 5.494-.365 10.794.954 15.719l-2.868 4.967-7.462 12.924c-1.155 2 .289 4.5 2.598 4.5h14.922 8.823c6.674 4.491 14.802 6.987 23.531 6.628 19.838-.816 36.174-16.713 37.486-36.524 1.59-23.972-18.37-43.718-42.41-41.772z" fill="#ffe2e2"/><path d="m101.048 27.813c-5.706 15.115-.161 32.459 13.25 41.469 4.125 2.771 8.552 4.525 13.036 5.394l2.879 4.262 8.157 12.076c.863 1.277 2.784 1.141 3.459-.244l6.38-13.102 3.464-7.113c6.241-3.617 11.443-9.19 14.58-16.368 7.129-16.313.726-35.723-14.73-44.558-18.824-10.761-42.763-2.244-50.475 18.184z" fill="#ffe2e2"/><path d="m164.92 224.81v21.24c0 2.76-2.24 5-5 5h-15c2.76 0 5-2.24 5-5v-21.24c0-9.332-3.407-18.55-10.87-26.21-3.342-3.307-6.971-5.738-10.92-7.55-1.44-.65-2.93-1.22-4.48-1.7-1.08-.33-2.19-.61-3.31-.83 2.42-.51 4.92-.77 7.5-.77 3.77 0 7.39.56 10.81 1.6 1.55.48 3.04 1.05 4.48 1.7 13.787 6.325 21.79 19.699 21.79 33.76z" fill="#307fed"/><path d="m135.34 188.52c-1.13.22-2.23.5-3.32.83-1.53.47-3.02 1.04-4.46 1.7-.74.32-1.45.68-2.15 1.06-3.215 1.693-6.356 4.015-9.09 6.83-6.53 6.67-10.54 15.8-10.54 25.87v21.24c0 2.76 2.23 5 5 5h-15c-2.77 0-5-2.24-5-5v-21.24c0-15.267 9.419-28.416 21.78-33.76 1.44-.66 2.93-1.23 4.46-1.7 3.43-1.04 7.05-1.6 10.82-1.6 2.58 0 5.08.26 7.5.77z" fill="#35b1fc"/><path d="m143.134 191.051c-7.263 12.581-10.97 18.999-10.962 18.985-1.925 3.334-6.737 3.333-8.661-.002-7.114-12.33-4.567-7.917-10.955-18.984 1.446-.658 2.936-1.23 4.468-1.695 3.421-1.047 7.048-1.608 10.815-1.608s7.393.561 10.815 1.608c1.544.476 3.033 1.048 4.48 1.696z" fill="#ffbb98"/><path d="m134.71 205.64-2.54 4.4c-1.92 3.33-6.73 3.33-8.66-.01-7.114-12.325-4.568-7.913-10.95-18.98 1.44-.66 2.93-1.23 4.46-1.69 2.56-.78 5.23-1.3 7.99-1.51-.15.06-.3.13-.45.2l5.08 8.81z" fill="#ffcaa6"/><path d="m102.303 174.483c-1.349.777-2.925 1.22-4.609 1.22-5.105 0-9.25-4.145-9.25-9.25 0-5.116 4.145-9.261 9.25-9.261.939 0 1.846.14 2.698.399-.356 1.77-.54 3.583-.54 5.451.001 4.08.875 7.944 2.451 11.441z" fill="#ffbb98"/><path d="m167.235 166.453c0 5.105-4.134 9.25-9.25 9.25-1.673 0-3.249-.453-4.609-1.23 1.576-3.486 2.45-7.361 2.45-11.43 0-1.867-.183-3.68-.54-5.451.853-.259 1.759-.399 2.698-.399 5.117-.001 9.251 4.144 9.251 9.26z" fill="#ffbb98"/><ellipse cx="127.843" cy="163.045" fill="#ffbb98" rx="27.986" ry="27.986" transform="matrix(.071 -.998 .998 .071 -43.854 279.008)"/><path d="m155.83 163.04c0 15.46-12.53 27.99-27.99 27.99-2.6 0-5.11-.35-7.5-1.02 11.82-3.28 20.49-14.11 20.49-26.97 0-12.85-8.67-23.69-20.49-26.96 2.39-.67 4.9-1.02 7.5-1.02 15.46 0 27.99 12.53 27.99 27.98z" fill="#ffaa80"/><path d="m135.34 190.01c-2.39.67-4.9 1.02-7.5 1.02-15.45 0-27.98-12.53-27.98-27.99 0-15.45 12.53-27.98 27.98-27.98 2.6 0 5.11.35 7.5 1.02-11.81 3.28-20.48 14.11-20.48 26.96 0 12.86 8.67 23.69 20.48 26.97z" fill="#ffcaa6"/><path d="m90.776 155.692v3.54h6.994c4.868 0 9.369-2.839 11.808-7.458l3.918-7.458 3.929 7.458c1.22 2.31 2.957 4.177 4.997 5.461 2.029 1.284 4.382 1.997 6.811 1.997h35.683v-3.54c0-20.043-15.909-36.363-35.78-37.043-.421-.022-.853-.022-1.284-.022-.432 0-.863 0-1.284.022-9.725.335-18.5 4.404-24.932 10.837-6.716 6.702-10.86 15.963-10.86 26.206z" fill="#87828e"/><path d="m164.92 155.69v3.54h-15v-3.54c0-17.9-12.7-32.83-29.57-36.3 2.01-.41 4.09-.67 6.22-.74.42-.02.85-.02 1.28-.02s.86 0 1.29.02c19.87.68 35.78 17 35.78 37.04z" fill="#796e84"/><path d="m135.34 119.39c-7.22 1.48-13.68 5.07-18.7 10.1-6.72 6.7-10.86 15.96-10.86 26.2v.68c-2.29 1.84-5.08 2.86-8.01 2.86h-6.99v-3.54c0-10.24 4.14-19.5 10.86-26.2 6.43-6.44 15.2-10.51 24.93-10.84.42-.02.85-.02 1.28-.02s.86 0 1.29.02c2.12.07 4.19.32 6.2.74z" fill="#a4a4a5"/><path d="m166.25 54.19c-3.13 7.17-8.34 12.75-14.58 16.36l-3.46 7.12-6.38 13.1c-.68 1.38-2.6 1.52-3.46.24l-6.78-10.02 1.62-3.32 3.46-7.12c6.24-3.61 11.45-9.19 14.58-16.36 7.13-16.32.73-35.73-14.73-44.56-3.22-1.84-6.59-3.12-10.01-3.86 8.18-1.79 17.05-.69 25.01 3.86 15.46 8.83 21.86 28.24 14.73 44.56z" fill="#ffcfcf"/><path d="m146.59 80.99-4.76 9.78c-.68 1.38-2.6 1.52-3.46.24l-8.16-12.07-2.88-4.26c-4.48-.87-8.91-2.63-13.03-5.4-13.41-9.01-18.96-26.35-13.25-41.47 6.39-16.93 23.93-25.68 40.46-22.04-11.16 2.43-21.01 10.25-25.46 22.04-5.71 15.12-.16 32.46 13.25 41.47 4.12 2.77 8.55 4.53 13.03 5.4l2.88 4.26z" fill="#ffefee"/><path d="m251.02 92.2c-1.32 19.81-17.65 35.71-37.49 36.52-3.14.13-6.2-.11-9.14-.69 17.11-3.35 30.44-18.01 31.63-35.83 1.34-20.28-12.74-37.54-31.66-41.19 1.39-.27 2.81-.46 4.25-.58 24.04-1.95 43.99 17.8 42.41 41.77z" fill="#ffcfcf"/><path d="m188.03 83.99c-.77 5.49-.36 10.79.95 15.71l-2.86 4.97-7.46 12.93c-1.15 1.98.25 4.45 2.52 4.5h-14.93c-2.31 0-3.75-2.5-2.59-4.5l7.46-12.93 2.86-4.97c-1.31-4.92-1.72-10.22-.95-15.71 2.55-18.27 17.19-32.07 35.58-33.56 3.7-.3 7.31-.09 10.75.58-16.36 3.1-28.98 16.14-31.33 32.98z" fill="#ffefee"/><circle cx="211.783" cy="89.215" fill="#b76c6c" r="24.84"/><path d="m236.627 89.213c0 7.386-3.222 14.016-8.338 18.568-5.125-4.542-8.347-11.182-8.347-18.568s3.222-14.016 8.347-18.558c5.115 4.552 8.338 11.181 8.338 18.558z" fill="#965959"/><path d="m203.626 89.213c0 7.386-3.222 14.016-8.338 18.568-5.125-4.542-8.347-11.182-8.347-18.568s3.222-14.016 8.347-18.558c5.115 4.552 8.338 11.181 8.338 18.558z" fill="#c98585"/><g fill="#5f266d"><path d="m155.304 179.42c.88.19 1.78.28 2.68.28 10.718 0 16.905-12.074 10.93-20.74 0-29.586-21.335-45.327-42.48-44.31-20.25.698-39.66 15.925-39.66 44.29-6.674 9.716 1.812 22.904 13.61 20.49 2.12 3.54 4.9 6.64 8.18 9.12-.01.01-.02.01-.03.02-12.741 6.781-21.76 20.312-21.76 36.24v21.24c0 4.96 4.04 9 9 9h64.14c4.96 0 9-4.04 9-9v-21.24c0-15.905-9.237-29.811-21.81-36.25 3.29-2.49 6.08-5.59 8.2-9.14zm5.61 45.39v21.24c0 .55-.45 1-1 1h-64.14c-.55 0-1-.45-1-1v-21.24c0-12.383 6.808-22.925 16.23-28.45l9.04 15.67c3.468 6 12.114 6.003 15.59.01l9.05-15.67c9.488 5.523 16.23 16.184 16.23 28.44zm-23.93-31.12-8.28 14.34c-.388.678-1.347.669-1.73 0l-8.27-14.34c5.955 1.787 12.318 1.789 18.28 0zm-9.14-6.66c-14.104 0-24.739-12.146-23.96-24.98 3.85-1.52 7.15-4.47 9.23-8.42l.39-.72.38.73c3.053 5.768 8.828 9.59 15.35 9.59h22.59c-.168 13.377-11 23.8-23.98 23.8zm-34.29-23.8h2.3c.02 2.657.393 5.731 1.18 8.43-4.057-.516-5.965-5.269-3.48-8.43zm34.3-40.6c17.938 0 32.741 14.103 33.06 32.6-44.407 0-12.169 0-31.68 0-3.536 0-6.599-2.17-8.27-5.32l-3.93-7.46c-1.485-2.835-5.586-2.837-7.08 0-3.932 7.502-4.628 9.715-7.78 11.55-2.438 1.448-4.205 1.23-7.4 1.23.32-18.519 15.338-32.6 33.08-32.6zm30.79 49.03c.684-2.346 1.157-5.367 1.18-8.43h2.3c2.498 3.192.552 7.917-3.48 8.43z"/><path d="m208.284 46.44c-26.705 2.16-44.313 27.261-38.57 52.66l-9.52 16.49c-1.27 2.2-1.27 4.81 0 7 1.26 2.2 3.53 3.5 6.06 3.5h22.56c28.011 17.729 64.095-1.868 66.19-33.63 1.77-26.55-20.508-48.222-46.72-46.02zm38.74 45.49c-1.743 26.307-31.964 42.189-54.79 26.85-.66-.45-1.44-.69-2.24-.69h-22.01l9.46-16.39c.54-.91.68-2.01.4-3.03-5.589-20.949 8.693-42.443 31.08-44.26 21.536-1.737 39.53 15.931 38.1 37.52z"/><path d="m124.914 78.24 10.14 15.01c2.528 3.747 8.296 3.507 10.37-.73l9.33-19.15c25.531-15.896 23.673-52.971-1.25-67.21-20.993-12.017-47.649-2.416-56.2 20.24-8.024 21.259 4.111 46.248 27.61 51.84zm-20.12-49.02c6.835-18.108 28.067-25.659 44.74-16.12 20.193 11.537 21.236 41.772.13 53.99-.69.4-1.24 1-1.59 1.71l-8.33 17.11-9.1-13.47c-.59-.88-1.51-1.49-2.55-1.69-19.344-3.738-29.912-24.027-23.3-41.53z"/><path d="m87.194 130.71v-25.18c19.284-30.298-1.923-69.446-36.34-71.72-28.614-1.906-52.179 22.01-49.79 50.67 2.278 27.392 28.7 48.137 57.11 41.6l18.52 10.69c4.723 2.706 10.5-.709 10.5-6.06zm-8-26.37v24.64l-18.42-10.64c-.95-.545-2.062-.656-3.03-.4-23.836 6.381-46.762-10.763-48.71-34.12-1.968-23.737 17.494-43.605 41.29-42.03 28.869 1.915 46.495 35.14 29.55 60.32-.44.66-.68 1.44-.68 2.23z"/><path d="m46.034 49.12c-1.57-1.57-4.1-1.57-5.66 0l-25.16 25.15c-1.56 1.57-1.56 4.1 0 5.66l33 33c1.559 1.559 4.1 1.56 5.66 0l5.15-5.14 4.67 4.67c3.716 3.717 9.404-1.916 5.66-5.66l-4.67-4.67 14.35-14.36c1.565-1.565 1.555-4.095 0-5.65zm5.01 55.33-27.34-27.35 19.5-19.5 27.34 27.35z"/><path d="m211.784 60.37c-15.352 0-28.84 12.459-28.84 28.84 0 15.787 12.853 28.84 28.84 28.84 14.55 0 27.77-11.151 28.8-27.3v-.06c.999-16.308-12.287-30.32-28.8-30.32zm-10.48 46.85c8.421-10.516 8.43-25.497-.01-36.01 6.616-3.866 14.662-3.707 20.97 0-8.437 10.536-8.412 25.516 0 36-6.428 3.778-14.482 3.796-20.96.01zm-6.01-30.72c5.768 7.511 5.776 17.908 0 25.43-7.143-8.573-3.982-21.448 0-25.43zm32.98 25.43c-5.768-7.491-5.776-17.929 0-25.43 5.046 5.046 6.362 17.799 0 25.43z"/><path d="m33.544 76.45c-3.79 3.766 1.92 9.39 5.62 5.69l8.5-8.42c3.769-3.721-1.877-9.409-5.62-5.69z"/><path d="m129.144 60.55c6.31 0 11.42-5.11 11.42-11.41 0 0-.04.905-.04-18.52 2.06 1.29 4.33 2.27 6.72 2.87 7.961 2.16 8.293-6.574 3.31-7.47l-.13-.02c-5.113-.896-7.974-3.565-10.74-7.15-2.293-2.999-7.16-1.377-7.16 2.44v16.93c-7.509-2.245-14.79 3.337-14.79 10.92 0 6.3 5.11 11.41 11.41 11.41z"/></g></svg>